<?xml version="1.0" encoding="UTF-8"?><svg id="Layer_2" xmlns="http://www.w3.org/2000/svg" viewBox="0 0 300 168.33"><defs><style>.cls-1{fill:none;stroke:#000;stroke-linecap:round;stroke-miterlimit:10;stroke-width:10px;}</style></defs><path class="cls-1" d="M32.29,128.05c-13.15-21.91,25.93-49.46,25.93-49.46-2.15,1.61,3.02-2.22,3.02-2.22,11.19-9.07,80.07-66.32,94.42-42.91,15.63,25.5-15.63,101.99-42.77,101.99s3.29-65.41,58.4-96.04c37.82-21.02,59.77-1.45,64.13,15.08,1.77,6.72,1.44,15.22-5.15,26.27l-40.58,59.62c-8.22,1.18-5.13-14.42-5.13-14.42h0c7.44-28.88,38.33-31.84,73.82-22.66"/><path d="M21.67,68.33c40.56-3.12,87.64-5.84,128.37-7.41,31.22-1.6,65.6-2.87,96.57,.85,5.37,.58,10.73,1.29,16.08,2.26,5.31,1.03,10.73,2.02,15.79,4.33,.25,.12,.36,.41,.25,.66-.1,.21-.31,.32-.53,.29-5.23-.79-10.58-.75-15.92-.73-10.41,0-37.15,.73-47.97,.94-30.87,.43-65.16-1.04-96.22-.58-15.97,.03-48.26,.12-64.24,.19,0,0-32.13,.21-32.13,.21-.28,0-.5-.22-.51-.49,0-.26,.2-.48,.46-.5h0Z"/></svg>